<svg width="21" height="21" viewBox="0 0 21 21" fill="none" xmlns="http://www.w3.org/2000/svg">
<g clip-path="url(#clip0)">
<path d="M11.362 20.5566H10.1068C9.09156 20.5566 8.26559 19.7307 8.26559 18.7155V18.2909C7.83398 18.153 7.41465 17.9789 7.0118 17.7704L6.71086 18.0714C5.98199 18.8011 4.81445 18.7797 4.10676 18.0711L3.21961 17.184C2.51066 16.4758 2.49027 15.3087 3.21984 14.5799L3.52055 14.2792C3.31207 13.8763 3.13805 13.4571 3.00012 13.0254H2.57551C1.56035 13.0254 0.734375 12.1995 0.734375 11.1843V9.92902C0.734375 8.91383 1.56035 8.08789 2.57555 8.08789H3.00016C3.13809 7.65625 3.31211 7.23695 3.52059 6.8341L3.21965 6.5332C2.49051 5.80484 2.51063 4.63758 3.21988 3.9291L4.10711 3.04191C4.81645 2.3316 5.98371 2.31387 6.71117 3.04215L7.01184 3.34281C7.41469 3.13437 7.83402 2.96031 8.26563 2.82238V2.39777C8.26563 1.38258 9.09156 0.556641 10.1068 0.556641H11.362C12.3772 0.556641 13.2031 1.38258 13.2031 2.39777V2.82242C13.6347 2.96031 14.0541 3.13438 14.4569 3.34285L14.7579 3.04191C15.4867 2.31215 16.6543 2.33355 17.362 3.04219L18.2491 3.9293C18.958 4.63746 18.9784 5.80461 18.2489 6.5334L17.9482 6.8341C18.1566 7.23695 18.3307 7.65621 18.4686 8.08789H18.8932C19.9084 8.08789 20.7344 8.91383 20.7344 9.92902V11.1843C20.7344 12.1995 19.9084 13.0254 18.8932 13.0254H18.4686C18.3307 13.457 18.1566 13.8763 17.9482 14.2792L18.2491 14.5801C18.9782 15.3085 18.9581 16.4757 18.2489 17.1842L17.3616 18.0714C16.6523 18.7817 15.485 18.7995 14.7576 18.0712L14.4569 17.7705C14.0541 17.9789 13.6347 18.153 13.2031 18.2909V18.7156C13.2031 19.7307 12.3772 20.5566 11.362 20.5566V20.5566ZM7.2077 16.5398C7.76734 16.8708 8.36969 17.1209 8.99797 17.283C9.25672 17.3498 9.4375 17.5831 9.4375 17.8504V18.7155C9.4375 19.0845 9.73777 19.3848 10.1068 19.3848H11.362C11.731 19.3848 12.0313 19.0845 12.0313 18.7155V17.8504C12.0313 17.5831 12.2121 17.3498 12.4708 17.283C13.0991 17.1209 13.7014 16.8708 14.2611 16.5398C14.4914 16.4037 14.7845 16.4407 14.9737 16.6299L15.5865 17.2427C15.8507 17.5073 16.275 17.5011 16.5328 17.243L17.4205 16.3553C17.6777 16.0985 17.6862 15.6741 17.4208 15.409L16.8077 14.7959C16.6186 14.6068 16.5815 14.3136 16.7177 14.0833C17.0486 13.5237 17.2986 12.9214 17.4608 12.293C17.5276 12.0343 17.7609 11.8536 18.0281 11.8536H18.8932C19.2623 11.8536 19.5625 11.5533 19.5625 11.1843V9.92906C19.5625 9.56004 19.2623 9.2598 18.8932 9.2598H18.0281C17.7609 9.2598 17.5276 9.07902 17.4608 8.82031C17.2986 8.19199 17.0486 7.58965 16.7177 7.03004C16.5815 6.7998 16.6186 6.5066 16.8077 6.31746L17.4205 5.70461C17.6855 5.44 17.6786 5.01578 17.4208 4.75832L16.5331 3.87062C16.2758 3.61297 15.8514 3.60543 15.5868 3.87039L14.9738 4.48348C14.7846 4.67266 14.4913 4.70969 14.2611 4.57352C13.7015 4.24254 13.0991 3.9925 12.4709 3.83035C12.2121 3.76359 12.0313 3.53023 12.0313 3.26301V2.39777C12.0313 2.02875 11.7311 1.72852 11.362 1.72852H10.1068C9.73781 1.72852 9.43754 2.02875 9.43754 2.39777V3.26293C9.43754 3.53016 9.25676 3.76352 8.99801 3.83027C8.36973 3.99242 7.76738 4.24246 7.20773 4.57344C6.97742 4.70957 6.68426 4.67254 6.49512 4.4834L5.8823 3.87055C5.61809 3.60602 5.19375 3.61215 4.93605 3.87027L4.04828 4.75801C3.79117 5.0148 3.78258 5.43914 4.04805 5.7043L4.66113 6.31738C4.85027 6.50652 4.8873 6.79973 4.75117 7.02996C4.4202 7.58957 4.1702 8.19191 4.00805 8.82023C3.94125 9.07898 3.70789 9.25973 3.4407 9.25973H2.57555C2.20652 9.25977 1.90625 9.56 1.90625 9.92902V11.1843C1.90625 11.5533 2.20652 11.8535 2.57555 11.8535H3.44066C3.70789 11.8535 3.94121 12.0343 4.00801 12.293C4.17016 12.9213 4.4202 13.5237 4.75113 14.0833C4.88727 14.3135 4.85023 14.6067 4.66109 14.7959L4.04824 15.4087C3.78332 15.6733 3.79023 16.0975 4.04801 16.355L4.9357 17.2427C5.19301 17.5004 5.61738 17.5079 5.88199 17.2429L6.49504 16.6298C6.63441 16.4905 6.92437 16.3723 7.2077 16.5398V16.5398Z" fill="white"/>
<path d="M10.7347 14.9081C8.33525 14.9081 6.38318 12.956 6.38318 10.5566C6.38318 8.15713 8.33525 6.20502 10.7347 6.20502C13.1342 6.20502 15.0863 8.15713 15.0863 10.5566C15.0863 12.956 13.1342 14.9081 10.7347 14.9081V14.9081ZM10.7347 7.37689C8.98142 7.37689 7.55505 8.8033 7.55505 10.5566C7.55505 12.3099 8.98146 13.7363 10.7347 13.7363C12.488 13.7363 13.9144 12.3099 13.9144 10.5566C13.9144 8.8033 12.4881 7.37689 10.7347 7.37689V7.37689Z" fill="white"/>
</g>
<defs>
<clipPath id="clip0">
<rect width="20" height="20" fill="white" transform="translate(0.734375 0.556641)"/>
</clipPath>
</defs>
</svg>
